Coordinates
version=1
nRows=7
nColumns=40
inDegrees=yes

Units are S.I. units (second, meters, Newtons, ...)
Angles are in degrees.

endheader
time	pelvis_tilt	pelvis_list	pelvis_rotation	pelvis_tx	pelvis_ty	pelvis_tz	hip_flexion_r	hip_adduction_r	hip_rotation_r	knee_angle_r	knee_angle_r_beta	ankle_angle_r	subtalar_angle_r	mtp_angle_r	hip_flexion_l	hip_adduction_l	hip_rotation_l	knee_angle_l	knee_angle_l_beta	ankle_angle_l	subtalar_angle_l	mtp_angle_l	lumbar_extension	lumbar_bending	lumbar_rotation	arm_flex_r	arm_add_r	arm_rot_r	elbow_flex_r	pro_sup_r	wrist_flex_r	wrist_dev_r	arm_flex_l	arm_add_l	arm_rot_l	elbow_flex_l	pro_sup_l	wrist_flex_l	wrist_dev_l
     13.19250000	     -5.12492919	     -3.35599998	      8.96605307	      1.03449200	      0.91632113	      0.52184750	      0.20235526	      0.17513599	    -18.18717432	     19.65592648	     19.65592648	     19.41574348	     -3.62010455	     -3.02826079	     27.92705246	     -3.50309718	      6.25433904	     29.42650105	     29.42650105	      7.93809071	    -15.75372518	      6.39271187	     -8.98372158	      3.29102406	      4.67887431	     45.90788425	    -18.09025203	    -10.07073740	     76.76707355	     45.01466112	      0.00000000	      0.00000000	     -5.78594540	     -8.36265732	      4.24081756	     37.84084128	     44.31306736	      0.00000000	      0.00000000
     13.21257143	     -5.20553417	     -3.42785946	      8.64314847	      1.03544112	      0.91638507	      0.51678446	     -0.33293825	     -0.25118661	    -18.77186985	     19.46315441	     19.46315441	     19.00499687	     -2.09732949	     -4.17829719	     27.87343487	     -3.21451651	      6.43102275	     30.34292419	     30.34292419	      9.58592046	    -16.26187640	      9.19219875	     -8.75546505	      3.40466056	      4.46562429	     46.49864818	    -17.20550613	    -11.24449396	     70.86522651	     45.26966365	      0.00000000	      0.00000000	     -5.79411680	     -8.64737451	      3.61317403	     39.13577489	     44.48898074	      0.00000000	      0.00000000
     13.23264286	     -5.29421685	     -3.59082023	      8.24409359	      1.03641122	      0.91643414	      0.51196937	     -0.76041655	     -0.46703348	    -18.69562781	     19.34693956	     19.34693956	     18.71426991	     -1.48781965	     -4.33902365	     27.67984439	     -3.16580203	      6.28848629	     30.90367787	     30.90367787	     10.29778748	    -16.66325607	      9.35479294	     -8.65247954	      3.63296319	      5.03324628	     45.37493412	    -17.62532499	    -11.50536368	     68.90105521	     45.34346153	      0.00000000	      0.00000000	     -5.18229824	     -8.89130615	      3.28419186	     39.84202797	     44.55927855	      0.00000000	      0.00000000
     13.25271429	     -5.38384769	     -3.64374539	      7.83489076	      1.03723972	      0.91654078	      0.50706445	     -1.10764867	     -0.88855093	    -18.79140134	     19.40170847	     19.40170847	     18.29212031	     -0.66624201	     -5.18327208	     27.42245988	     -3.00648438	      6.08034377	     31.40131228	     31.40131228	     11.42740510	    -16.83265879	     10.54497901	     -8.52956204	      3.75370582	      4.64544646	     45.32340580	    -16.67838781	    -12.31948490	     64.60157312	     45.52064538	      0.00000000	      0.00000000	     -5.11550275	     -9.29827227	      2.84322304	     40.82124032	     44.70008653	      0.00000000	      0.00000000
     13.27278571	     -5.48119139	     -3.75901698	      7.39917142	      1.03794758	      0.91671932	      0.50228682	     -1.34881219	     -1.21548016	    -18.64088976	     19.56893767	     19.56893767	     17.96734306	     -0.18242833	     -5.43010026	     27.06852489	     -2.97637672	      5.73910231	     31.64362048	     31.64362048	     12.08898445	    -16.94771477	     10.55152298	     -8.44989199	      3.93635686	      5.08397508	     43.96358655	    -17.08390054	    -12.64510703	     62.49006547	     45.59940722	      0.00000000	      0.00000000	     -4.40428462	     -9.61337917	      2.55821567	     41.53347054	     44.76774658	      0.00000000	      0.00000000
     13.29285714	     -5.60092602	     -3.83873973	      6.98525700	      1.03848796	      0.91699675	      0.49750305	     -1.48976034	     -1.62260960	    -18.55548557	     19.84184442	     19.84184442	     17.39203752	      0.26210051	     -6.34329423	     26.67528642	     -2.89436036	      5.42615241	     31.76226457	     31.76226457	     12.85049331	    -16.98162902	     10.90619833	     -8.32219185	      4.07081575	      4.71280538	     43.48228464	    -16.37071301	    -13.52499051	     58.35172631	     45.76673743	      0.00000000	      0.00000000	     -4.09499357	    -10.11869722	      2.42509516	     42.28950190	     44.86445968	      0.00000000	      0.00000000
     13.31292857	     -5.70522100	     -3.90070881	      6.55454963	      1.03880885	      0.91738814	      0.49286313	     -1.42611486	     -2.06524500	    -18.24971734	     20.48485673	     20.48485673	     16.96164160	      0.33056527	     -6.71181091	     26.19193491	     -2.84342076	      4.99056219	     31.70681776	     31.70681776	     13.38585148	    -16.93130637	     10.77161581	     -8.29530824	      4.18259090	      4.94403517	     41.80669623	    -16.70691312	    -13.78721539	     56.37051883	     45.83593698	      0.00000000	      0.00000000	     -3.27875737	    -10.52850028	      2.17250833	     42.95276575	     44.92645149	      0.00000000	      0.00000000
